<svg xmlns="http://www.w3.org/2000/svg" viewBox="0 0 24 24" width="22" height="22">
  <path
    d="m12.2041,10.1819l0,3.8682l5.4916,-0c-0.2365,1.2499 -0.9555,2.3091 -2.0362,3.0181l0,-0 0,2.5091l3.2978,-0c1.9295,-1.7409 3.0426,-4.3045 3.0426,-7.35l0,-0c0,-0.7091 -0.0649,-1.3909 -0.1855,-2.0454l0,-0z"
    fill="#3e82f1"/>
  <path
    d="M3.0853,13.9L3.0853,16.491C4.7644,19.7592 8.2152,22 12.2041,22l0,-0c2.7552,-0 5.065,-0.8954 6.7533,-2.4227l0,-0l-3.2978,-2.5091C14.7458,17.6682 13.577,18.0228 12.2041,18.0228l0,-0c-2.6577,-0 -4.9073,-1.7592 -5.7097,-4.1228l0,-0z"
    fill="#32a753"/>
  <path
    d="M3.0853,7.5092C2.3943,8.8592 2,10.3864 2,12l0,-0c0,1.6137 0.3943,3.1409 1.0853,4.4909l0,-0l3.409,-2.591c-0.2041,-0.6 -0.32,-1.2409 -0.32,-1.9l0,-0c0,-0.6591 0.1159,-1.3 0.32,-1.9l0,-0 0,-2.5908z"
    fill="#f9bb00"/>
  <path
    d="m3.0853,7.5092 l3.409,2.5908c0.8024,-2.3636 3.052,-4.1227 5.7097,-4.1227l0,-0c1.4981,-0 2.8433,0.5046 3.9008,1.4955l0,-0l2.9267,-2.8682c-1.7672,-1.6136 -4.077,-2.6046 -6.8275,-2.6046l0,-0c-3.9889,-0 -7.4397,2.241 -9.1187,5.5092"
    fill="#e74133"/>
</svg>
