<svg width="296" height="304" viewBox="0 0 296 304" fill="none" xmlns="http://www.w3.org/2000/svg">
<g filter="url(#filter0_d_3_22)">
<rect x="4.50043" y="295" width="165" height="217" rx="9" transform="rotate(-90 4.50043 295)" fill="#8F94FB"/>
</g>
<g filter="url(#filter1_d_3_22)">
<rect x="3" y="253.043" width="166.558" height="220" rx="9" transform="rotate(-78.5 3 253.043)" fill="#F5AF19"/>
</g>
<g filter="url(#filter2_d_3_22)">
<rect x="6.43216" y="156.628" width="165" height="220" rx="9" transform="rotate(-52 6.43216 156.628)" fill="#10B47D"/>
</g>
<g filter="url(#filter3_d_3_22)">
<rect x="49.5004" y="72.3312" width="165" height="220" rx="9" transform="rotate(-26 49.5004 72.3312)" fill="#C471ED"/>
</g>
<rect x="126.5" y="17" width="165" height="220" rx="9" fill="#4285F4"/>
<path fill-rule="evenodd" clip-rule="evenodd" d="M243.282 90.5061C241.33 88.5534 238.164 88.5535 236.211 90.5061L195.906 130.811L182.471 117.376C180.518 115.424 177.353 115.424 175.4 117.376L169.036 123.74C167.083 125.693 167.083 128.859 169.036 130.811L186.007 147.782L192.37 154.146C194.323 156.098 197.489 156.098 199.442 154.146L205.805 147.782L249.646 103.941C251.599 101.989 251.599 98.8227 249.646 96.8701L243.282 90.5061Z" fill="white"/>
<defs>
<filter id="filter0_d_3_22" x="0.500427" y="130" width="225" height="173" filterUnits="userSpaceOnUse" color-interpolation-filters="sRGB">
<feFlood flood-opacity="0" result="BackgroundImageFix"/>
<feColorMatrix in="SourceAlpha" type="matrix" values="0 0 0 0 0 0 0 0 0 0 0 0 0 0 0 0 0 0 127 0" result="hardAlpha"/>
<feOffset dy="4"/>
<feGaussianBlur stdDeviation="2"/>
<feComposite in2="hardAlpha" operator="out"/>
<feColorMatrix type="matrix" values="0 0 0 0 0 0 0 0 0 0 0 0 0 0 0 0 0 0 0.25 0"/>
<feBlend mode="normal" in2="BackgroundImageFix" result="effect1_dropShadow_3_22"/>
<feBlend mode="normal" in="SourceGraphic" in2="effect1_dropShadow_3_22" result="shape"/>
</filter>
<filter id="filter1_d_3_22" x="0.611877" y="91.4412" width="253.566" height="211.851" filterUnits="userSpaceOnUse" color-interpolation-filters="sRGB">
<feFlood flood-opacity="0" result="BackgroundImageFix"/>
<feColorMatrix in="SourceAlpha" type="matrix" values="0 0 0 0 0 0 0 0 0 0 0 0 0 0 0 0 0 0 127 0" result="hardAlpha"/>
<feOffset dy="4"/>
<feGaussianBlur stdDeviation="2"/>
<feComposite in2="hardAlpha" operator="out"/>
<feColorMatrix type="matrix" values="0 0 0 0 0 0 0 0 0 0 0 0 0 0 0 0 0 0 0.25 0"/>
<feBlend mode="normal" in2="BackgroundImageFix" result="effect1_dropShadow_3_22"/>
<feBlend mode="normal" in="SourceGraphic" in2="effect1_dropShadow_3_22" result="shape"/>
</filter>
<filter id="filter2_d_3_22" x="6.06482" y="30.2388" width="275.681" height="266.202" filterUnits="userSpaceOnUse" color-interpolation-filters="sRGB">
<feFlood flood-opacity="0" result="BackgroundImageFix"/>
<feColorMatrix in="SourceAlpha" type="matrix" values="0 0 0 0 0 0 0 0 0 0 0 0 0 0 0 0 0 0 127 0" result="hardAlpha"/>
<feOffset dy="4"/>
<feGaussianBlur stdDeviation="2"/>
<feComposite in2="hardAlpha" operator="out"/>
<feColorMatrix type="matrix" values="0 0 0 0 0 0 0 0 0 0 0 0 0 0 0 0 0 0 0.25 0"/>
<feBlend mode="normal" in2="BackgroundImageFix" result="effect1_dropShadow_3_22"/>
<feBlend mode="normal" in="SourceGraphic" in2="effect1_dropShadow_3_22" result="shape"/>
</filter>
<filter id="filter3_d_3_22" x="48.5329" y="3.03244" width="246.678" height="272.001" filterUnits="userSpaceOnUse" color-interpolation-filters="sRGB">
<feFlood flood-opacity="0" result="BackgroundImageFix"/>
<feColorMatrix in="SourceAlpha" type="matrix" values="0 0 0 0 0 0 0 0 0 0 0 0 0 0 0 0 0 0 127 0" result="hardAlpha"/>
<feOffset dy="4"/>
<feGaussianBlur stdDeviation="2"/>
<feComposite in2="hardAlpha" operator="out"/>
<feColorMatrix type="matrix" values="0 0 0 0 0 0 0 0 0 0 0 0 0 0 0 0 0 0 0.25 0"/>
<feBlend mode="normal" in2="BackgroundImageFix" result="effect1_dropShadow_3_22"/>
<feBlend mode="normal" in="SourceGraphic" in2="effect1_dropShadow_3_22" result="shape"/>
</filter>
</defs>
</svg>
